<mxfile host="Electron" agent="Mozilla/5.0 (X11; Linux x86_64) AppleWebKit/537.36 (KHTML, like Gecko) draw.io/25.0.1 Chrome/128.0.6613.186 Electron/32.2.6 Safari/537.36" version="25.0.1">
  <diagram id="C5RBs43oDa-KdzZeNtuy" name="Page-1">
    <mxGraphModel dx="2716" dy="623" grid="1" gridSize="10" guides="1" tooltips="1" connect="1" arrows="1" fold="1" page="1" pageScale="1" pageWidth="827" pageHeight="1169" math="0" shadow="0">
      <root>
        <mxCell id="WIyWlLk6GJQsqaUBKTNV-0" />
        <mxCell id="WIyWlLk6GJQsqaUBKTNV-1" parent="WIyWlLk6GJQsqaUBKTNV-0" />
        <mxCell id="DKdlm2fA2UCCM3XWbuZl-3" style="edgeStyle=orthogonalEdgeStyle;rounded=0;orthogonalLoop=1;jettySize=auto;html=1;exitX=1;exitY=0.5;exitDx=0;exitDy=0;entryX=0;entryY=0.5;entryDx=0;entryDy=0;" parent="WIyWlLk6GJQsqaUBKTNV-1" source="WIyWlLk6GJQsqaUBKTNV-3" target="DKdlm2fA2UCCM3XWbuZl-0" edge="1">
          <mxGeometry relative="1" as="geometry" />
        </mxCell>
        <mxCell id="WIyWlLk6GJQsqaUBKTNV-3" value="Modified from QTableWidget&lt;div&gt;if IDLE, set Modified_From_GUI&lt;/div&gt;" style="rounded=1;whiteSpace=wrap;html=1;fontSize=12;glass=0;strokeWidth=1;shadow=0;" parent="WIyWlLk6GJQsqaUBKTNV-1" vertex="1">
          <mxGeometry x="160" y="80" width="230" height="150" as="geometry" />
        </mxCell>
        <mxCell id="DKdlm2fA2UCCM3XWbuZl-4" style="edgeStyle=orthogonalEdgeStyle;rounded=0;orthogonalLoop=1;jettySize=auto;html=1;exitX=0.5;exitY=1;exitDx=0;exitDy=0;entryX=0.5;entryY=0;entryDx=0;entryDy=0;" parent="WIyWlLk6GJQsqaUBKTNV-1" source="DKdlm2fA2UCCM3XWbuZl-0" target="DKdlm2fA2UCCM3XWbuZl-2" edge="1">
          <mxGeometry relative="1" as="geometry" />
        </mxCell>
        <mxCell id="DKdlm2fA2UCCM3XWbuZl-0" value="radarInstance: update_value" style="rounded=1;whiteSpace=wrap;html=1;fontSize=12;glass=0;strokeWidth=1;shadow=0;" parent="WIyWlLk6GJQsqaUBKTNV-1" vertex="1">
          <mxGeometry x="480" y="80" width="230" height="150" as="geometry" />
        </mxCell>
        <mxCell id="DKdlm2fA2UCCM3XWbuZl-11" style="edgeStyle=orthogonalEdgeStyle;rounded=0;orthogonalLoop=1;jettySize=auto;html=1;exitX=1;exitY=0.5;exitDx=0;exitDy=0;entryX=0.5;entryY=0;entryDx=0;entryDy=0;" parent="WIyWlLk6GJQsqaUBKTNV-1" source="DKdlm2fA2UCCM3XWbuZl-14" target="DKdlm2fA2UCCM3XWbuZl-6" edge="1">
          <mxGeometry relative="1" as="geometry">
            <mxPoint x="595" y="410" as="targetPoint" />
          </mxGeometry>
        </mxCell>
        <mxCell id="DKdlm2fA2UCCM3XWbuZl-1" value="transmit / wait for rx" style="rounded=1;whiteSpace=wrap;html=1;fontSize=12;glass=0;strokeWidth=1;shadow=0;" parent="WIyWlLk6GJQsqaUBKTNV-1" vertex="1">
          <mxGeometry x="150" y="291.25" width="190" height="77.5" as="geometry" />
        </mxCell>
        <mxCell id="DKdlm2fA2UCCM3XWbuZl-9" value="yes" style="edgeStyle=orthogonalEdgeStyle;rounded=0;orthogonalLoop=1;jettySize=auto;html=1;exitX=0;exitY=0.5;exitDx=0;exitDy=0;entryX=1;entryY=0.5;entryDx=0;entryDy=0;" parent="WIyWlLk6GJQsqaUBKTNV-1" source="DKdlm2fA2UCCM3XWbuZl-2" target="DKdlm2fA2UCCM3XWbuZl-1" edge="1">
          <mxGeometry relative="1" as="geometry" />
        </mxCell>
        <mxCell id="DKdlm2fA2UCCM3XWbuZl-10" style="edgeStyle=orthogonalEdgeStyle;rounded=0;orthogonalLoop=1;jettySize=auto;html=1;exitX=0.5;exitY=1;exitDx=0;exitDy=0;entryX=0.5;entryY=0;entryDx=0;entryDy=0;" parent="WIyWlLk6GJQsqaUBKTNV-1" source="DKdlm2fA2UCCM3XWbuZl-2" target="DKdlm2fA2UCCM3XWbuZl-6" edge="1">
          <mxGeometry relative="1" as="geometry" />
        </mxCell>
        <mxCell id="DKdlm2fA2UCCM3XWbuZl-2" value="is connected" style="rhombus;whiteSpace=wrap;html=1;" parent="WIyWlLk6GJQsqaUBKTNV-1" vertex="1">
          <mxGeometry x="470" y="290" width="250" height="80" as="geometry" />
        </mxCell>
        <mxCell id="DKdlm2fA2UCCM3XWbuZl-12" style="edgeStyle=orthogonalEdgeStyle;rounded=0;orthogonalLoop=1;jettySize=auto;html=1;exitX=0.5;exitY=1;exitDx=0;exitDy=0;entryX=0.5;entryY=0;entryDx=0;entryDy=0;" parent="WIyWlLk6GJQsqaUBKTNV-1" source="DKdlm2fA2UCCM3XWbuZl-6" target="DKdlm2fA2UCCM3XWbuZl-13" edge="1">
          <mxGeometry relative="1" as="geometry">
            <mxPoint x="595" y="550" as="targetPoint" />
          </mxGeometry>
        </mxCell>
        <mxCell id="DKdlm2fA2UCCM3XWbuZl-6" value="is linked to octave" style="rhombus;whiteSpace=wrap;html=1;" parent="WIyWlLk6GJQsqaUBKTNV-1" vertex="1">
          <mxGeometry x="470" y="530" width="250" height="80" as="geometry" />
        </mxCell>
        <mxCell id="R9CUlPHY5IGVoiGYb0t--1" style="edgeStyle=orthogonalEdgeStyle;rounded=0;orthogonalLoop=1;jettySize=auto;html=1;exitX=0.5;exitY=1;exitDx=0;exitDy=0;entryX=0.5;entryY=0;entryDx=0;entryDy=0;" parent="WIyWlLk6GJQsqaUBKTNV-1" source="DKdlm2fA2UCCM3XWbuZl-13" target="R9CUlPHY5IGVoiGYb0t--0" edge="1">
          <mxGeometry relative="1" as="geometry" />
        </mxCell>
        <mxCell id="DKdlm2fA2UCCM3XWbuZl-13" value="update workspace" style="rounded=1;whiteSpace=wrap;html=1;fontSize=12;glass=0;strokeWidth=1;shadow=0;" parent="WIyWlLk6GJQsqaUBKTNV-1" vertex="1">
          <mxGeometry x="480" y="650" width="230" height="80" as="geometry" />
        </mxCell>
        <mxCell id="DKdlm2fA2UCCM3XWbuZl-15" value="" style="edgeStyle=orthogonalEdgeStyle;rounded=0;orthogonalLoop=1;jettySize=auto;html=1;exitX=0.5;exitY=1;exitDx=0;exitDy=0;entryX=0;entryY=0.5;entryDx=0;entryDy=0;" parent="WIyWlLk6GJQsqaUBKTNV-1" source="DKdlm2fA2UCCM3XWbuZl-1" target="DKdlm2fA2UCCM3XWbuZl-14" edge="1">
          <mxGeometry relative="1" as="geometry">
            <mxPoint x="255" y="369" as="sourcePoint" />
            <mxPoint x="595" y="420" as="targetPoint" />
          </mxGeometry>
        </mxCell>
        <mxCell id="DKdlm2fA2UCCM3XWbuZl-14" value="update_value" style="rounded=1;whiteSpace=wrap;html=1;fontSize=12;glass=0;strokeWidth=1;shadow=0;" parent="WIyWlLk6GJQsqaUBKTNV-1" vertex="1">
          <mxGeometry x="270" y="420" width="230" height="80" as="geometry" />
        </mxCell>
        <mxCell id="R9CUlPHY5IGVoiGYb0t--0" value="update octave UI" style="rounded=1;whiteSpace=wrap;html=1;fontSize=12;glass=0;strokeWidth=1;shadow=0;" parent="WIyWlLk6GJQsqaUBKTNV-1" vertex="1">
          <mxGeometry x="480" y="770" width="230" height="80" as="geometry" />
        </mxCell>
        <mxCell id="R9CUlPHY5IGVoiGYb0t--2" style="edgeStyle=orthogonalEdgeStyle;rounded=0;orthogonalLoop=1;jettySize=auto;html=1;exitX=1;exitY=0.5;exitDx=0;exitDy=0;entryX=0;entryY=0.5;entryDx=0;entryDy=0;" parent="WIyWlLk6GJQsqaUBKTNV-1" source="R9CUlPHY5IGVoiGYb0t--3" target="R9CUlPHY5IGVoiGYb0t--5" edge="1">
          <mxGeometry relative="1" as="geometry" />
        </mxCell>
        <mxCell id="R9CUlPHY5IGVoiGYb0t--3" value="modified from workspace" style="rounded=1;whiteSpace=wrap;html=1;fontSize=12;glass=0;strokeWidth=1;shadow=0;" parent="WIyWlLk6GJQsqaUBKTNV-1" vertex="1">
          <mxGeometry x="160" y="920" width="230" height="150" as="geometry" />
        </mxCell>
        <mxCell id="R9CUlPHY5IGVoiGYb0t--4" style="edgeStyle=orthogonalEdgeStyle;rounded=0;orthogonalLoop=1;jettySize=auto;html=1;exitX=0.5;exitY=1;exitDx=0;exitDy=0;entryX=0.5;entryY=0;entryDx=0;entryDy=0;" parent="WIyWlLk6GJQsqaUBKTNV-1" source="R9CUlPHY5IGVoiGYb0t--5" target="R9CUlPHY5IGVoiGYb0t--10" edge="1">
          <mxGeometry relative="1" as="geometry" />
        </mxCell>
        <mxCell id="R9CUlPHY5IGVoiGYb0t--5" value="radarInstance: update_value" style="rounded=1;whiteSpace=wrap;html=1;fontSize=12;glass=0;strokeWidth=1;shadow=0;" parent="WIyWlLk6GJQsqaUBKTNV-1" vertex="1">
          <mxGeometry x="480" y="920" width="230" height="150" as="geometry" />
        </mxCell>
        <mxCell id="R9CUlPHY5IGVoiGYb0t--6" style="edgeStyle=orthogonalEdgeStyle;rounded=0;orthogonalLoop=1;jettySize=auto;html=1;exitX=1;exitY=0.5;exitDx=0;exitDy=0;" parent="WIyWlLk6GJQsqaUBKTNV-1" source="R9CUlPHY5IGVoiGYb0t--16" edge="1">
          <mxGeometry relative="1" as="geometry">
            <mxPoint x="595" y="1490" as="targetPoint" />
          </mxGeometry>
        </mxCell>
        <mxCell id="R9CUlPHY5IGVoiGYb0t--7" value="transmit / wait for rx" style="rounded=1;whiteSpace=wrap;html=1;fontSize=12;glass=0;strokeWidth=1;shadow=0;" parent="WIyWlLk6GJQsqaUBKTNV-1" vertex="1">
          <mxGeometry x="150" y="1131.25" width="190" height="77.5" as="geometry" />
        </mxCell>
        <mxCell id="R9CUlPHY5IGVoiGYb0t--8" value="yes" style="edgeStyle=orthogonalEdgeStyle;rounded=0;orthogonalLoop=1;jettySize=auto;html=1;exitX=0;exitY=0.5;exitDx=0;exitDy=0;entryX=1;entryY=0.5;entryDx=0;entryDy=0;" parent="WIyWlLk6GJQsqaUBKTNV-1" source="R9CUlPHY5IGVoiGYb0t--10" target="R9CUlPHY5IGVoiGYb0t--7" edge="1">
          <mxGeometry relative="1" as="geometry" />
        </mxCell>
        <mxCell id="R9CUlPHY5IGVoiGYb0t--9" style="edgeStyle=orthogonalEdgeStyle;rounded=0;orthogonalLoop=1;jettySize=auto;html=1;exitX=0.5;exitY=1;exitDx=0;exitDy=0;entryX=0.5;entryY=0;entryDx=0;entryDy=0;" parent="WIyWlLk6GJQsqaUBKTNV-1" source="R9CUlPHY5IGVoiGYb0t--10" target="R9CUlPHY5IGVoiGYb0t--14" edge="1">
          <mxGeometry relative="1" as="geometry">
            <mxPoint x="595" y="1370" as="targetPoint" />
          </mxGeometry>
        </mxCell>
        <mxCell id="R9CUlPHY5IGVoiGYb0t--10" value="is connected" style="rhombus;whiteSpace=wrap;html=1;" parent="WIyWlLk6GJQsqaUBKTNV-1" vertex="1">
          <mxGeometry x="470" y="1130" width="250" height="80" as="geometry" />
        </mxCell>
        <mxCell id="R9CUlPHY5IGVoiGYb0t--13" style="edgeStyle=orthogonalEdgeStyle;rounded=0;orthogonalLoop=1;jettySize=auto;html=1;exitX=0.5;exitY=1;exitDx=0;exitDy=0;entryX=0.5;entryY=0;entryDx=0;entryDy=0;" parent="WIyWlLk6GJQsqaUBKTNV-1" source="R9CUlPHY5IGVoiGYb0t--14" target="R9CUlPHY5IGVoiGYb0t--17" edge="1">
          <mxGeometry relative="1" as="geometry" />
        </mxCell>
        <mxCell id="R9CUlPHY5IGVoiGYb0t--14" value="update QTableWidget" style="rounded=1;whiteSpace=wrap;html=1;fontSize=12;glass=0;strokeWidth=1;shadow=0;" parent="WIyWlLk6GJQsqaUBKTNV-1" vertex="1">
          <mxGeometry x="480" y="1400" width="230" height="80" as="geometry" />
        </mxCell>
        <mxCell id="R9CUlPHY5IGVoiGYb0t--15" value="" style="edgeStyle=orthogonalEdgeStyle;rounded=0;orthogonalLoop=1;jettySize=auto;html=1;exitX=0.5;exitY=1;exitDx=0;exitDy=0;entryX=0;entryY=0.5;entryDx=0;entryDy=0;" parent="WIyWlLk6GJQsqaUBKTNV-1" source="R9CUlPHY5IGVoiGYb0t--7" target="R9CUlPHY5IGVoiGYb0t--16" edge="1">
          <mxGeometry relative="1" as="geometry">
            <mxPoint x="255" y="1209" as="sourcePoint" />
            <mxPoint x="595" y="1260" as="targetPoint" />
          </mxGeometry>
        </mxCell>
        <mxCell id="R9CUlPHY5IGVoiGYb0t--16" value="update_value" style="rounded=1;whiteSpace=wrap;html=1;fontSize=12;glass=0;strokeWidth=1;shadow=0;" parent="WIyWlLk6GJQsqaUBKTNV-1" vertex="1">
          <mxGeometry x="270" y="1260" width="230" height="80" as="geometry" />
        </mxCell>
        <mxCell id="R9CUlPHY5IGVoiGYb0t--17" value="update octave UI" style="rounded=1;whiteSpace=wrap;html=1;fontSize=12;glass=0;strokeWidth=1;shadow=0;" parent="WIyWlLk6GJQsqaUBKTNV-1" vertex="1">
          <mxGeometry x="480" y="1540" width="230" height="80" as="geometry" />
        </mxCell>
        <mxCell id="wcXGbRqXW01hwbjPo6dW-12" style="edgeStyle=orthogonalEdgeStyle;rounded=0;orthogonalLoop=1;jettySize=auto;html=1;exitX=0.5;exitY=1;exitDx=0;exitDy=0;entryX=0.5;entryY=0;entryDx=0;entryDy=0;" parent="WIyWlLk6GJQsqaUBKTNV-1" source="R9CUlPHY5IGVoiGYb0t--47" target="wcXGbRqXW01hwbjPo6dW-11" edge="1">
          <mxGeometry relative="1" as="geometry" />
        </mxCell>
        <mxCell id="R9CUlPHY5IGVoiGYb0t--47" value="radarInstance: set_param_value&amp;nbsp;&lt;span style=&quot;background-color: initial; color: rgba(0, 0, 0, 0); font-family: monospace; font-size: 0px; text-align: start; text-wrap: nowrap;&quot;&gt;%3E%3Croot%3E%3CmxCell%20id%3D%220%22%2F%3E%3CmxCell%20id%3D%221%22%20parent%3D%220%22%2F%3E%3CmxCell%20id%3D%222%22%20value%3D%22update%20workspace%26lt%3Bdiv%26gt%3B(emit%20signal%20for%20ws)%26lt%3B%2Fdiv%26gt%3B%22%20style%3D%22rounded%3D1%3BwhiteSpace%3Dwrap%3Bhtml%3D1%3BfontSize%3D12%3Bglass%3D0%3BstrokeWidth%3D1%3Bshadow%3D0%3B%22%20vertex%3D%221%22%20parent%3D%221%22%3E%3CmxGeometry%20x%3D%22320%22%20y%3D%222490%22%20width%3D%22230%22%20height%3D%2280%22%20as%3D%22geometry%22%2F%3E%3C%2FmxCell%3E%3C%2Froot%3E%3C%2FmxGraphModel%upda&lt;/span&gt;&lt;div&gt;&lt;div style=&quot;text-align: start;&quot;&gt;update_param_value &lt;br&gt;(-&amp;gt;update internal value)&lt;/div&gt;&lt;div&gt;&lt;div&gt;&lt;div&gt;&lt;span style=&quot;background-color: initial; color: rgba(0, 0, 0, 0); font-family: monospace; font-size: 0px; text-align: start; text-wrap: nowrap;&quot;&gt;Uupda )&lt;/span&gt;&lt;/div&gt;&lt;/div&gt;&lt;/div&gt;&lt;/div&gt;" style="rounded=1;whiteSpace=wrap;html=1;fontSize=12;glass=0;strokeWidth=1;shadow=0;fillColor=#eeeeee;strokeColor=#36393d;" parent="WIyWlLk6GJQsqaUBKTNV-1" vertex="1">
          <mxGeometry x="130" y="2015" width="230" height="100" as="geometry" />
        </mxCell>
        <mxCell id="R9CUlPHY5IGVoiGYb0t--50" value="yes" style="edgeStyle=orthogonalEdgeStyle;rounded=0;orthogonalLoop=1;jettySize=auto;html=1;exitX=0;exitY=0.5;exitDx=0;exitDy=0;entryX=0.972;entryY=0.498;entryDx=0;entryDy=0;entryPerimeter=0;" parent="WIyWlLk6GJQsqaUBKTNV-1" source="R9CUlPHY5IGVoiGYb0t--52" target="R9CUlPHY5IGVoiGYb0t--61" edge="1">
          <mxGeometry relative="1" as="geometry">
            <mxPoint x="-10" y="2330" as="targetPoint" />
          </mxGeometry>
        </mxCell>
        <mxCell id="R9CUlPHY5IGVoiGYb0t--90" value="no" style="edgeStyle=orthogonalEdgeStyle;rounded=0;orthogonalLoop=1;jettySize=auto;html=1;exitX=0.5;exitY=1;exitDx=0;exitDy=0;" parent="WIyWlLk6GJQsqaUBKTNV-1" source="R9CUlPHY5IGVoiGYb0t--52" target="wcXGbRqXW01hwbjPo6dW-20" edge="1">
          <mxGeometry relative="1" as="geometry" />
        </mxCell>
        <mxCell id="R9CUlPHY5IGVoiGYb0t--52" value="is connected" style="rhombus;whiteSpace=wrap;html=1;fillColor=#eeeeee;strokeColor=#36393d;" parent="WIyWlLk6GJQsqaUBKTNV-1" vertex="1">
          <mxGeometry x="120" y="2290" width="250" height="80" as="geometry" />
        </mxCell>
        <mxCell id="R9CUlPHY5IGVoiGYb0t--57" value="yes&lt;div&gt;&lt;br&gt;&lt;/div&gt;" style="edgeStyle=orthogonalEdgeStyle;rounded=0;orthogonalLoop=1;jettySize=auto;html=1;entryX=0.5;entryY=0;entryDx=0;entryDy=0;" parent="WIyWlLk6GJQsqaUBKTNV-1" source="R9CUlPHY5IGVoiGYb0t--61" target="R9CUlPHY5IGVoiGYb0t--58" edge="1">
          <mxGeometry relative="1" as="geometry">
            <mxPoint x="-180" y="2390" as="sourcePoint" />
            <mxPoint x="245" y="2420" as="targetPoint" />
          </mxGeometry>
        </mxCell>
        <mxCell id="R9CUlPHY5IGVoiGYb0t--64" style="edgeStyle=orthogonalEdgeStyle;rounded=0;orthogonalLoop=1;jettySize=auto;html=1;exitX=0.5;exitY=1;exitDx=0;exitDy=0;entryX=0.5;entryY=0;entryDx=0;entryDy=0;" parent="WIyWlLk6GJQsqaUBKTNV-1" source="R9CUlPHY5IGVoiGYb0t--58" target="R9CUlPHY5IGVoiGYb0t--63" edge="1">
          <mxGeometry relative="1" as="geometry" />
        </mxCell>
        <mxCell id="wcXGbRqXW01hwbjPo6dW-27" style="edgeStyle=orthogonalEdgeStyle;rounded=0;orthogonalLoop=1;jettySize=auto;html=1;exitX=0;exitY=0.5;exitDx=0;exitDy=0;entryX=0.5;entryY=0;entryDx=0;entryDy=0;" parent="WIyWlLk6GJQsqaUBKTNV-1" source="R9CUlPHY5IGVoiGYb0t--58" target="wcXGbRqXW01hwbjPo6dW-29" edge="1">
          <mxGeometry relative="1" as="geometry">
            <mxPoint x="-380" y="2560" as="targetPoint" />
          </mxGeometry>
        </mxCell>
        <mxCell id="R9CUlPHY5IGVoiGYb0t--58" value="transmit / wait for RX&lt;div&gt;&lt;b&gt;status &amp;lt;- transmitting&lt;/b&gt;&lt;/div&gt;" style="rounded=1;whiteSpace=wrap;html=1;fontSize=12;glass=0;strokeWidth=1;shadow=0;fillColor=#dae8fc;strokeColor=#6c8ebf;" parent="WIyWlLk6GJQsqaUBKTNV-1" vertex="1">
          <mxGeometry x="-220" y="2420" width="230" height="80" as="geometry" />
        </mxCell>
        <mxCell id="R9CUlPHY5IGVoiGYb0t--60" value="stop" style="rounded=1;whiteSpace=wrap;html=1;fontSize=12;glass=0;strokeWidth=1;shadow=0;fillColor=#dae8fc;strokeColor=#6c8ebf;" parent="WIyWlLk6GJQsqaUBKTNV-1" vertex="1">
          <mxGeometry x="-480" y="2290" width="190" height="80" as="geometry" />
        </mxCell>
        <mxCell id="R9CUlPHY5IGVoiGYb0t--68" style="edgeStyle=orthogonalEdgeStyle;rounded=0;orthogonalLoop=1;jettySize=auto;html=1;exitX=0;exitY=0.5;exitDx=0;exitDy=0;entryX=1;entryY=0.5;entryDx=0;entryDy=0;" parent="WIyWlLk6GJQsqaUBKTNV-1" source="R9CUlPHY5IGVoiGYb0t--61" target="R9CUlPHY5IGVoiGYb0t--60" edge="1">
          <mxGeometry relative="1" as="geometry" />
        </mxCell>
        <mxCell id="R9CUlPHY5IGVoiGYb0t--69" value="no" style="edgeLabel;html=1;align=center;verticalAlign=middle;resizable=0;points=[];" parent="R9CUlPHY5IGVoiGYb0t--68" vertex="1" connectable="0">
          <mxGeometry x="-0.2196" y="2" relative="1" as="geometry">
            <mxPoint as="offset" />
          </mxGeometry>
        </mxCell>
        <mxCell id="R9CUlPHY5IGVoiGYb0t--61" value="&lt;b&gt;modified?&lt;/b&gt;" style="rhombus;whiteSpace=wrap;html=1;fillColor=#dae8fc;strokeColor=#6c8ebf;" parent="WIyWlLk6GJQsqaUBKTNV-1" vertex="1">
          <mxGeometry x="-230" y="2290" width="250" height="80" as="geometry" />
        </mxCell>
        <mxCell id="R9CUlPHY5IGVoiGYb0t--71" style="edgeStyle=orthogonalEdgeStyle;rounded=0;orthogonalLoop=1;jettySize=auto;html=1;exitX=0.5;exitY=1;exitDx=0;exitDy=0;entryX=0.5;entryY=0;entryDx=0;entryDy=0;" parent="WIyWlLk6GJQsqaUBKTNV-1" source="R9CUlPHY5IGVoiGYb0t--62" target="R9CUlPHY5IGVoiGYb0t--73" edge="1">
          <mxGeometry relative="1" as="geometry">
            <mxPoint x="85" y="2810" as="targetPoint" />
          </mxGeometry>
        </mxCell>
        <mxCell id="R9CUlPHY5IGVoiGYb0t--76" value="yes" style="edgeLabel;html=1;align=center;verticalAlign=middle;resizable=0;points=[];" parent="R9CUlPHY5IGVoiGYb0t--71" vertex="1" connectable="0">
          <mxGeometry x="-0.4569" y="4" relative="1" as="geometry">
            <mxPoint as="offset" />
          </mxGeometry>
        </mxCell>
        <mxCell id="R9CUlPHY5IGVoiGYb0t--91" style="edgeStyle=orthogonalEdgeStyle;rounded=0;orthogonalLoop=1;jettySize=auto;html=1;exitX=0;exitY=0.5;exitDx=0;exitDy=0;entryX=0;entryY=0.5;entryDx=0;entryDy=0;" parent="WIyWlLk6GJQsqaUBKTNV-1" source="R9CUlPHY5IGVoiGYb0t--62" target="R9CUlPHY5IGVoiGYb0t--81" edge="1">
          <mxGeometry relative="1" as="geometry">
            <Array as="points">
              <mxPoint x="-130" y="2710" />
              <mxPoint x="-130" y="3030" />
            </Array>
          </mxGeometry>
        </mxCell>
        <mxCell id="R9CUlPHY5IGVoiGYb0t--62" value="is linked to octave" style="rhombus;whiteSpace=wrap;html=1;fillColor=#fff2cc;strokeColor=#d6b656;" parent="WIyWlLk6GJQsqaUBKTNV-1" vertex="1">
          <mxGeometry x="-40" y="2670" width="250" height="80" as="geometry" />
        </mxCell>
        <mxCell id="R9CUlPHY5IGVoiGYb0t--65" style="edgeStyle=orthogonalEdgeStyle;rounded=0;orthogonalLoop=1;jettySize=auto;html=1;exitX=0.5;exitY=1;exitDx=0;exitDy=0;entryX=0.5;entryY=0;entryDx=0;entryDy=0;" parent="WIyWlLk6GJQsqaUBKTNV-1" source="R9CUlPHY5IGVoiGYb0t--63" target="R9CUlPHY5IGVoiGYb0t--62" edge="1">
          <mxGeometry relative="1" as="geometry" />
        </mxCell>
        <mxCell id="R9CUlPHY5IGVoiGYb0t--63" value="update value on Rx&lt;div&gt;&lt;b&gt;&lt;br&gt;&lt;/b&gt;&lt;/div&gt;&lt;div&gt;&lt;b&gt;status &amp;lt;- received&lt;/b&gt;&lt;/div&gt;" style="rounded=1;whiteSpace=wrap;html=1;fontSize=12;glass=0;strokeWidth=1;shadow=0;fillColor=#fff2cc;strokeColor=#d6b656;" parent="WIyWlLk6GJQsqaUBKTNV-1" vertex="1">
          <mxGeometry x="-220" y="2530" width="230" height="80" as="geometry" />
        </mxCell>
        <mxCell id="R9CUlPHY5IGVoiGYb0t--82" style="edgeStyle=orthogonalEdgeStyle;rounded=0;orthogonalLoop=1;jettySize=auto;html=1;exitX=0.5;exitY=1;exitDx=0;exitDy=0;entryX=0.5;entryY=0;entryDx=0;entryDy=0;" parent="WIyWlLk6GJQsqaUBKTNV-1" source="R9CUlPHY5IGVoiGYb0t--73" target="R9CUlPHY5IGVoiGYb0t--81" edge="1">
          <mxGeometry relative="1" as="geometry" />
        </mxCell>
        <mxCell id="wcXGbRqXW01hwbjPo6dW-3" value="*SLOT* updatedVariables" style="edgeStyle=orthogonalEdgeStyle;rounded=0;orthogonalLoop=1;jettySize=auto;html=1;exitX=0;exitY=0.5;exitDx=0;exitDy=0;dashed=1;fontStyle=1" parent="WIyWlLk6GJQsqaUBKTNV-1" source="R9CUlPHY5IGVoiGYb0t--73" target="wcXGbRqXW01hwbjPo6dW-2" edge="1">
          <mxGeometry relative="1" as="geometry" />
        </mxCell>
        <mxCell id="R9CUlPHY5IGVoiGYb0t--73" value="update workspace&lt;div&gt;(emit signal for ws)&lt;/div&gt;" style="rounded=1;whiteSpace=wrap;html=1;fontSize=12;glass=0;strokeWidth=1;shadow=0;fillStyle=hatch;fillColor=#C2C2C2;" parent="WIyWlLk6GJQsqaUBKTNV-1" vertex="1">
          <mxGeometry x="-30" y="2870" width="230" height="80" as="geometry" />
        </mxCell>
        <mxCell id="R9CUlPHY5IGVoiGYb0t--78" value="set IDLE" style="rounded=1;whiteSpace=wrap;html=1;fontSize=12;glass=0;strokeWidth=1;shadow=0;fillStyle=hatch;fillColor=#C4C4C4;" parent="WIyWlLk6GJQsqaUBKTNV-1" vertex="1">
          <mxGeometry x="-30" y="3132" width="230" height="80" as="geometry" />
        </mxCell>
        <mxCell id="R9CUlPHY5IGVoiGYb0t--83" style="edgeStyle=orthogonalEdgeStyle;rounded=0;orthogonalLoop=1;jettySize=auto;html=1;exitX=0.5;exitY=1;exitDx=0;exitDy=0;" parent="WIyWlLk6GJQsqaUBKTNV-1" source="R9CUlPHY5IGVoiGYb0t--81" target="R9CUlPHY5IGVoiGYb0t--78" edge="1">
          <mxGeometry relative="1" as="geometry" />
        </mxCell>
        <mxCell id="R9CUlPHY5IGVoiGYb0t--81" value="update GUI&lt;div&gt;(emit signal for GUI)&lt;/div&gt;" style="rounded=1;whiteSpace=wrap;html=1;fontSize=12;glass=0;strokeWidth=1;shadow=0;fillStyle=hatch;fillColor=#C4C4C4;" parent="WIyWlLk6GJQsqaUBKTNV-1" vertex="1">
          <mxGeometry x="-30" y="2990" width="230" height="80" as="geometry" />
        </mxCell>
        <mxCell id="R9CUlPHY5IGVoiGYb0t--94" value="yes" style="edgeStyle=orthogonalEdgeStyle;rounded=0;orthogonalLoop=1;jettySize=auto;html=1;exitX=0.5;exitY=1;exitDx=0;exitDy=0;entryX=1;entryY=0.5;entryDx=0;entryDy=0;" parent="WIyWlLk6GJQsqaUBKTNV-1" source="R9CUlPHY5IGVoiGYb0t--88" target="R9CUlPHY5IGVoiGYb0t--73" edge="1">
          <mxGeometry relative="1" as="geometry" />
        </mxCell>
        <mxCell id="R9CUlPHY5IGVoiGYb0t--95" style="edgeStyle=orthogonalEdgeStyle;rounded=0;orthogonalLoop=1;jettySize=auto;html=1;exitX=1;exitY=0.5;exitDx=0;exitDy=0;entryX=1;entryY=0.5;entryDx=0;entryDy=0;" parent="WIyWlLk6GJQsqaUBKTNV-1" source="R9CUlPHY5IGVoiGYb0t--88" target="R9CUlPHY5IGVoiGYb0t--81" edge="1">
          <mxGeometry relative="1" as="geometry" />
        </mxCell>
        <mxCell id="R9CUlPHY5IGVoiGYb0t--88" value="is linked to octave" style="rhombus;whiteSpace=wrap;html=1;fillColor=#eeeeee;strokeColor=#36393d;" parent="WIyWlLk6GJQsqaUBKTNV-1" vertex="1">
          <mxGeometry x="120" y="2530" width="250" height="80" as="geometry" />
        </mxCell>
        <mxCell id="wcXGbRqXW01hwbjPo6dW-1" style="edgeStyle=orthogonalEdgeStyle;rounded=0;orthogonalLoop=1;jettySize=auto;html=1;exitX=1;exitY=0.5;exitDx=0;exitDy=0;entryX=0;entryY=0.5;entryDx=0;entryDy=0;" parent="WIyWlLk6GJQsqaUBKTNV-1" source="wcXGbRqXW01hwbjPo6dW-0" target="R9CUlPHY5IGVoiGYb0t--47" edge="1">
          <mxGeometry relative="1" as="geometry" />
        </mxCell>
        <mxCell id="wcXGbRqXW01hwbjPo6dW-0" value="Modified from QTableWidget&lt;div&gt;&lt;br&gt;&lt;div&gt;&lt;b&gt;status &amp;lt;- modified&lt;/b&gt;&lt;/div&gt;&lt;/div&gt;" style="rounded=1;whiteSpace=wrap;html=1;fontSize=12;glass=0;strokeWidth=1;shadow=0;" parent="WIyWlLk6GJQsqaUBKTNV-1" vertex="1">
          <mxGeometry x="-250" y="1990" width="230" height="150" as="geometry" />
        </mxCell>
        <mxCell id="wcXGbRqXW01hwbjPo6dW-5" style="edgeStyle=orthogonalEdgeStyle;rounded=0;orthogonalLoop=1;jettySize=auto;html=1;exitX=0.5;exitY=1;exitDx=0;exitDy=0;entryX=0.5;entryY=0;entryDx=0;entryDy=0;" parent="WIyWlLk6GJQsqaUBKTNV-1" source="wcXGbRqXW01hwbjPo6dW-2" target="wcXGbRqXW01hwbjPo6dW-4" edge="1">
          <mxGeometry relative="1" as="geometry" />
        </mxCell>
        <mxCell id="wcXGbRqXW01hwbjPo6dW-2" value="project::variables_updated" style="rounded=1;whiteSpace=wrap;html=1;fontSize=12;glass=0;strokeWidth=1;shadow=0;" parent="WIyWlLk6GJQsqaUBKTNV-1" vertex="1">
          <mxGeometry x="-330" y="3190" width="230" height="80" as="geometry" />
        </mxCell>
        <mxCell id="wcXGbRqXW01hwbjPo6dW-7" style="edgeStyle=orthogonalEdgeStyle;rounded=0;orthogonalLoop=1;jettySize=auto;html=1;exitX=0.5;exitY=1;exitDx=0;exitDy=0;entryX=0.5;entryY=0;entryDx=0;entryDy=0;" parent="WIyWlLk6GJQsqaUBKTNV-1" source="wcXGbRqXW01hwbjPo6dW-4" target="wcXGbRqXW01hwbjPo6dW-6" edge="1">
          <mxGeometry relative="1" as="geometry" />
        </mxCell>
        <mxCell id="wcXGbRqXW01hwbjPo6dW-4" value="radarInstace::update_variable" style="rounded=1;whiteSpace=wrap;html=1;fontSize=12;glass=0;strokeWidth=1;shadow=0;" parent="WIyWlLk6GJQsqaUBKTNV-1" vertex="1">
          <mxGeometry x="-330" y="3320" width="230" height="80" as="geometry" />
        </mxCell>
        <mxCell id="wcXGbRqXW01hwbjPo6dW-18" style="edgeStyle=orthogonalEdgeStyle;rounded=0;orthogonalLoop=1;jettySize=auto;html=1;exitX=1;exitY=0.5;exitDx=0;exitDy=0;entryX=1;entryY=0.5;entryDx=0;entryDy=0;" parent="WIyWlLk6GJQsqaUBKTNV-1" source="wcXGbRqXW01hwbjPo6dW-6" target="R9CUlPHY5IGVoiGYb0t--47" edge="1">
          <mxGeometry relative="1" as="geometry">
            <mxPoint x="600" y="2580" as="targetPoint" />
            <Array as="points">
              <mxPoint x="700" y="3480" />
              <mxPoint x="700" y="2065" />
            </Array>
          </mxGeometry>
        </mxCell>
        <mxCell id="wcXGbRqXW01hwbjPo6dW-6" value="radarInstance: set_param_value&lt;span style=&quot;text-wrap: nowrap; background-color: initial; color: rgba(0, 0, 0, 0); font-family: monospace; font-size: 0px; text-align: start;&quot;&gt;%3E%3Croot%3E%3CmxCell%20id%3D%220%22%2F%3E%3CmxCell%20id%3D%221%22%20parent%3D%220%22%2F%3E%3CmxCell%20id%3D%222%22%20value%3D%22update%20workspace%26lt%3Bdiv%26gt%3B(emit%20signal%20for%20ws)%26lt%3B%2Fdiv%26gt%3B%22%20style%3D%22rounded%3D1%3BwhiteSpace%3Dwrap%3Bhtml%3D1%3BfontSize%3D12%3Bglass%3D0%3BstrokeWidth%3D1%3Bshadow%3D0%3B%22%20vertex%3D%221%22%20parent%3D%221%22%3E%3CmxGeometry%20x%3D%22320%22%20y%3D%222490%22%20width%3D%22230%22%20height%3D%2280%22%20as%3D%22geometry%22%2F%3E%3C%2FmxCell%3E%3C%2Froot%3E%3C%2FmxGraphModel%&lt;/span&gt;" style="rounded=1;whiteSpace=wrap;html=1;fontSize=12;glass=0;strokeWidth=1;shadow=0;" parent="WIyWlLk6GJQsqaUBKTNV-1" vertex="1">
          <mxGeometry x="-330" y="3440" width="230" height="80" as="geometry" />
        </mxCell>
        <mxCell id="wcXGbRqXW01hwbjPo6dW-13" style="edgeStyle=orthogonalEdgeStyle;rounded=0;orthogonalLoop=1;jettySize=auto;html=1;exitX=0.5;exitY=1;exitDx=0;exitDy=0;entryX=0.5;entryY=0;entryDx=0;entryDy=0;" parent="WIyWlLk6GJQsqaUBKTNV-1" source="wcXGbRqXW01hwbjPo6dW-11" target="R9CUlPHY5IGVoiGYb0t--52" edge="1">
          <mxGeometry relative="1" as="geometry" />
        </mxCell>
        <mxCell id="wcXGbRqXW01hwbjPo6dW-14" value="yes" style="edgeStyle=orthogonalEdgeStyle;rounded=0;orthogonalLoop=1;jettySize=auto;html=1;" parent="WIyWlLk6GJQsqaUBKTNV-1" source="wcXGbRqXW01hwbjPo6dW-11" target="R9CUlPHY5IGVoiGYb0t--52" edge="1">
          <mxGeometry relative="1" as="geometry" />
        </mxCell>
        <mxCell id="wcXGbRqXW01hwbjPo6dW-11" value="&lt;b&gt;modified?&lt;/b&gt;" style="rhombus;whiteSpace=wrap;html=1;fillColor=#eeeeee;strokeColor=#36393d;" parent="WIyWlLk6GJQsqaUBKTNV-1" vertex="1">
          <mxGeometry x="120" y="2160" width="250" height="80" as="geometry" />
        </mxCell>
        <mxCell id="wcXGbRqXW01hwbjPo6dW-15" value="no" style="edgeStyle=orthogonalEdgeStyle;rounded=0;orthogonalLoop=1;jettySize=auto;html=1;exitX=1;exitY=0.5;exitDx=0;exitDy=0;entryX=0.535;entryY=0.034;entryDx=0;entryDy=0;entryPerimeter=0;" parent="WIyWlLk6GJQsqaUBKTNV-1" source="wcXGbRqXW01hwbjPo6dW-11" target="wcXGbRqXW01hwbjPo6dW-16" edge="1">
          <mxGeometry relative="1" as="geometry">
            <mxPoint x="255" y="2250" as="sourcePoint" />
            <mxPoint x="480" y="2320" as="targetPoint" />
            <Array as="points">
              <mxPoint x="482" y="2200" />
              <mxPoint x="482" y="2323" />
            </Array>
          </mxGeometry>
        </mxCell>
        <mxCell id="wcXGbRqXW01hwbjPo6dW-16" value="stop" style="rounded=1;whiteSpace=wrap;html=1;fontSize=12;glass=0;strokeWidth=1;shadow=0;fillColor=#eeeeee;strokeColor=#36393d;" parent="WIyWlLk6GJQsqaUBKTNV-1" vertex="1">
          <mxGeometry x="380" y="2420" width="190" height="80" as="geometry" />
        </mxCell>
        <mxCell id="wcXGbRqXW01hwbjPo6dW-17" value="&lt;b&gt;INTERNAL TO UPDATE_PARAM_VALUE&lt;/b&gt;" style="rounded=1;whiteSpace=wrap;html=1;fontSize=12;glass=0;strokeWidth=1;shadow=0;fillColor=#eeeeee;strokeColor=#36393d;" parent="WIyWlLk6GJQsqaUBKTNV-1" vertex="1">
          <mxGeometry x="-760" y="2480" width="190" height="80" as="geometry" />
        </mxCell>
        <mxCell id="wcXGbRqXW01hwbjPo6dW-23" style="edgeStyle=orthogonalEdgeStyle;rounded=0;orthogonalLoop=1;jettySize=auto;html=1;exitX=0.5;exitY=1;exitDx=0;exitDy=0;entryX=0.5;entryY=0;entryDx=0;entryDy=0;" parent="WIyWlLk6GJQsqaUBKTNV-1" source="wcXGbRqXW01hwbjPo6dW-20" target="R9CUlPHY5IGVoiGYb0t--88" edge="1">
          <mxGeometry relative="1" as="geometry" />
        </mxCell>
        <mxCell id="wcXGbRqXW01hwbjPo6dW-20" value="&lt;b&gt;status&amp;lt;-updated&lt;/b&gt;" style="rounded=1;whiteSpace=wrap;html=1;fontSize=12;glass=0;strokeWidth=1;shadow=0;fillColor=#eeeeee;strokeColor=#36393d;" parent="WIyWlLk6GJQsqaUBKTNV-1" vertex="1">
          <mxGeometry x="130" y="2420" width="230" height="80" as="geometry" />
        </mxCell>
        <mxCell id="wcXGbRqXW01hwbjPo6dW-24" value="&lt;b&gt;INTERNAL TO TRANSMIT_PARAM&lt;/b&gt;" style="rounded=1;whiteSpace=wrap;html=1;fontSize=12;glass=0;strokeWidth=1;shadow=0;fillColor=#dae8fc;strokeColor=#6c8ebf;" parent="WIyWlLk6GJQsqaUBKTNV-1" vertex="1">
          <mxGeometry x="-760" y="2570" width="190" height="80" as="geometry" />
        </mxCell>
        <mxCell id="wcXGbRqXW01hwbjPo6dW-25" value="&lt;b&gt;INTERNAL TO UPDATE_PARAM_AFTER_RX&lt;/b&gt;" style="rounded=1;whiteSpace=wrap;html=1;fontSize=12;glass=0;strokeWidth=1;shadow=0;fillColor=#fff2cc;strokeColor=#d6b656;" parent="WIyWlLk6GJQsqaUBKTNV-1" vertex="1">
          <mxGeometry x="-760" y="2660" width="190" height="80" as="geometry" />
        </mxCell>
        <mxCell id="wcXGbRqXW01hwbjPo6dW-26" value="&lt;b&gt;Flow shared by different procedures&lt;/b&gt;" style="rounded=1;whiteSpace=wrap;html=1;fontSize=12;glass=0;strokeWidth=1;shadow=0;fillStyle=hatch;fillColor=#C2C2C2;" parent="WIyWlLk6GJQsqaUBKTNV-1" vertex="1">
          <mxGeometry x="-760" y="2750" width="190" height="80" as="geometry" />
        </mxCell>
        <mxCell id="wcXGbRqXW01hwbjPo6dW-31" style="edgeStyle=orthogonalEdgeStyle;rounded=0;orthogonalLoop=1;jettySize=auto;html=1;entryX=0.5;entryY=0;entryDx=0;entryDy=0;" parent="WIyWlLk6GJQsqaUBKTNV-1" source="wcXGbRqXW01hwbjPo6dW-29" target="wcXGbRqXW01hwbjPo6dW-30" edge="1">
          <mxGeometry relative="1" as="geometry" />
        </mxCell>
        <mxCell id="wcXGbRqXW01hwbjPo6dW-29" value="&lt;b&gt;timeout?&lt;/b&gt;" style="rhombus;whiteSpace=wrap;html=1;" parent="WIyWlLk6GJQsqaUBKTNV-1" vertex="1">
          <mxGeometry x="-510" y="2520" width="250" height="80" as="geometry" />
        </mxCell>
        <mxCell id="wcXGbRqXW01hwbjPo6dW-30" value="status &amp;lt;- &lt;b&gt;idle&lt;/b&gt;&lt;div&gt;stop&lt;/div&gt;" style="rounded=1;whiteSpace=wrap;html=1;fontSize=12;glass=0;strokeWidth=1;shadow=0;" parent="WIyWlLk6GJQsqaUBKTNV-1" vertex="1">
          <mxGeometry x="-480" y="2660" width="190" height="80" as="geometry" />
        </mxCell>
        <mxCell id="wcXGbRqXW01hwbjPo6dW-34" value="Modified from workspace" style="rounded=1;whiteSpace=wrap;html=1;fontSize=12;glass=0;strokeWidth=1;shadow=0;" parent="WIyWlLk6GJQsqaUBKTNV-1" vertex="1">
          <mxGeometry x="-827" y="3140" width="220" height="100" as="geometry" />
        </mxCell>
        <mxCell id="wcXGbRqXW01hwbjPo6dW-35" value="status = updated or received" style="text;strokeColor=none;align=center;fillColor=none;html=1;verticalAlign=middle;whiteSpace=wrap;rounded=0;" parent="WIyWlLk6GJQsqaUBKTNV-1" vertex="1">
          <mxGeometry x="-70" y="3345" width="60" height="30" as="geometry" />
        </mxCell>
        <mxCell id="wcXGbRqXW01hwbjPo6dW-37" value="*SLOT* updatedVariables" style="edgeStyle=orthogonalEdgeStyle;rounded=0;orthogonalLoop=1;jettySize=auto;html=1;exitX=1;exitY=0.5;exitDx=0;exitDy=0;dashed=1;fontStyle=1" parent="WIyWlLk6GJQsqaUBKTNV-1" source="wcXGbRqXW01hwbjPo6dW-34" target="wcXGbRqXW01hwbjPo6dW-2" edge="1">
          <mxGeometry relative="1" as="geometry">
            <mxPoint x="-20" y="2920" as="sourcePoint" />
            <mxPoint x="-205" y="3200" as="targetPoint" />
            <Array as="points">
              <mxPoint x="-530" y="3190" />
              <mxPoint x="-530" y="3230" />
            </Array>
          </mxGeometry>
        </mxCell>
        <mxCell id="wcXGbRqXW01hwbjPo6dW-38" value="*SLOT* updatedVariables" style="edgeStyle=orthogonalEdgeStyle;rounded=0;orthogonalLoop=1;jettySize=auto;html=1;dashed=1;fontStyle=1;entryX=0;entryY=0.5;entryDx=0;entryDy=0;" parent="WIyWlLk6GJQsqaUBKTNV-1" source="wcXGbRqXW01hwbjPo6dW-34" target="wcXGbRqXW01hwbjPo6dW-0" edge="1">
          <mxGeometry x="-0.4777" y="-10" relative="1" as="geometry">
            <mxPoint x="-460" y="3180" as="sourcePoint" />
            <mxPoint x="-460" y="3090" as="targetPoint" />
            <Array as="points">
              <mxPoint x="-530" y="3190" />
              <mxPoint x="-530" y="2065" />
            </Array>
            <mxPoint y="1" as="offset" />
          </mxGeometry>
        </mxCell>
        <mxCell id="Omo5AzO1O1DBnqxU1s7Y-0" value="Immediate radar_param modification" style="rounded=1;whiteSpace=wrap;html=1;fontSize=12;glass=0;strokeWidth=1;shadow=0;" vertex="1" parent="WIyWlLk6GJQsqaUBKTNV-1">
          <mxGeometry x="-1220" y="3390" width="220" height="100" as="geometry" />
        </mxCell>
        <mxCell id="Omo5AzO1O1DBnqxU1s7Y-5" style="edgeStyle=orthogonalEdgeStyle;rounded=0;orthogonalLoop=1;jettySize=auto;html=1;exitX=1;exitY=0.5;exitDx=0;exitDy=0;entryX=0.75;entryY=1;entryDx=0;entryDy=0;" edge="1" parent="WIyWlLk6GJQsqaUBKTNV-1" source="Omo5AzO1O1DBnqxU1s7Y-2" target="wcXGbRqXW01hwbjPo6dW-34">
          <mxGeometry relative="1" as="geometry">
            <mxPoint x="-810" y="2830" as="targetPoint" />
          </mxGeometry>
        </mxCell>
        <mxCell id="Omo5AzO1O1DBnqxU1s7Y-2" value="data_interface&lt;br&gt;check for variable and value" style="rounded=1;whiteSpace=wrap;html=1;fontSize=12;glass=0;strokeWidth=1;shadow=0;" vertex="1" parent="WIyWlLk6GJQsqaUBKTNV-1">
          <mxGeometry x="-910" y="3380" width="220" height="100" as="geometry" />
        </mxCell>
        <mxCell id="Omo5AzO1O1DBnqxU1s7Y-4" value="*SLOT* immediate_update_of_radar_var" style="edgeStyle=orthogonalEdgeStyle;rounded=0;orthogonalLoop=1;jettySize=auto;html=1;dashed=1;fontStyle=1;entryX=0;entryY=0.5;entryDx=0;entryDy=0;exitX=1;exitY=0.5;exitDx=0;exitDy=0;" edge="1" parent="WIyWlLk6GJQsqaUBKTNV-1" source="Omo5AzO1O1DBnqxU1s7Y-0" target="Omo5AzO1O1DBnqxU1s7Y-2">
          <mxGeometry y="-20" relative="1" as="geometry">
            <mxPoint x="-977" y="4880" as="sourcePoint" />
            <mxPoint x="-620" y="3755" as="targetPoint" />
            <Array as="points">
              <mxPoint x="-1000" y="3440" />
              <mxPoint x="-1000" y="3440" />
            </Array>
            <mxPoint as="offset" />
          </mxGeometry>
        </mxCell>
      </root>
    </mxGraphModel>
  </diagram>
</mxfile>
